<svg version="1.1" xmlns="http://www.w3.org/2000/svg" style="display: block;" viewBox="0 0 2048 1536" width="1000"
  height="750" preserveAspectRatio="none">
  <path transform="translate(0,0)" fill="none"
    d="M 0 0 L 2048 0 L 2048 1433.49 L 2048 1464.54 L 2048 1536 L 210.87 1536 L 94.1571 1536 L 0 1536 L 0 0 z" />
  <path transform="translate(0,0)" fill="rgb(203,149,141)"
    d="M 525.093 1451.47 L 524.588 1451 C 510.857 1438.03 491.086 1411 480.596 1395.06 C 408.696 1285.4 382.392 1147.37 377.127 1018 C 367.887 790.947 426.608 536.06 586.805 367.039 C 709.813 237.255 905.996 159.477 1083.45 155.163 C 1230.11 151.598 1355.19 193.6 1477.05 273.189 C 1520.64 301.335 1561.59 333.389 1599.38 368.954 C 1670.89 436.816 1721.16 503.623 1754.51 597.681 C 1773.52 651.31 1782.48 694.511 1783.9 751.861 C 1787.74 892.501 1735.19 1028.84 1637.96 1130.53 C 1620.62 1148.66 1601.05 1165.75 1581.38 1181.31 C 1554.99 1202.19 1467.62 1263.96 1437.8 1263.66 C 1433.75 1263.62 1429.82 1262.43 1427.06 1259.34 C 1423.93 1255.83 1423.6 1251.27 1423.84 1246.77 C 1424.65 1232.22 1429.01 1217.2 1431.12 1202.71 C 1435.14 1173.59 1437.49 1144.27 1438.15 1114.89 C 1439.64 1001.69 1409.16 913.821 1334.87 827.504 C 1312.7 801.751 1292.5 785.315 1270.22 762.467 C 1240.93 772.574 1203.62 793.471 1176.57 808.414 C 963.95 925.874 705.138 1149.23 701.608 1411.41 C 882.975 1370.25 1084.21 1341.09 1270.34 1336.99 C 1408.36 1334.93 1546.33 1343.58 1683.01 1362.89 C 1790.35 1378.25 1894.43 1401.5 2000.28 1424.05 C 2016.11 1427.42 2032.24 1429.65 2048 1433.49 L 2048 1464.54 L 2048 1536 L 210.87 1536 L 94.1571 1536 C 94.3289 1534.62 94.8678 1532.96 95.2466 1531.59 C 100.943 1524.23 142.293 1518.62 152.288 1516.76 C 183.665 1510.77 215.107 1505.13 246.609 1499.84 L 525.093 1451.47 z" />
  <path transform="translate(0,0)" fill="rgb(245,230,225)"
    d="M 210.87 1536 C 234.055 1529.79 263.266 1524.6 287.088 1520.52 C 415.667 1498.46 541.796 1470.79 668.437 1439.59 C 733.795 1423.48 805.896 1410.37 872.163 1398.83 C 1120.04 1356.28 1372.86 1350.79 1622.35 1382.55 C 1706.49 1393.38 1790.1 1408.06 1872.9 1426.54 C 1930.99 1439.21 1989.53 1454.15 2048 1464.54 L 2048 1536 L 210.87 1536 z" />
  <path transform="translate(0,0)" fill="rgb(245,230,225)"
    d="M 1061.03 176.416 C 1087.95 173.587 1126.49 176.122 1153.51 178.106 C 1314.75 189.942 1456.27 270.171 1574.28 376.757 C 1675.76 468.404 1751.34 599.803 1757.44 738.723 C 1756.03 737.262 1752.63 733.683 1751.08 732.75 C 1672.92 685.546 1559.02 677.843 1471.03 687.437 C 1403.38 695.121 1337.02 711.587 1273.62 736.418 C 1093.18 806.737 922.668 941.792 802.128 1091.8 C 728.21 1189.06 675.406 1298.55 665.858 1421.62 C 628.955 1430.57 591.402 1437.83 554.207 1445.45 C 553.048 1444.57 551.91 1443.67 550.795 1442.74 C 529.105 1424.64 513.814 1403.67 498.647 1380.03 C 441.358 1290.76 416.066 1180.94 406.354 1076.62 C 384.441 841.244 430.891 584.08 587.269 399.514 C 674.243 296.862 811.888 226.271 941.689 194.508 C 982.371 184.552 1019.41 180.004 1061.03 176.416 z" />
  <path transform="translate(0,0)" fill="rgb(246,203,196)"
    d="M 1505.53 703.413 C 1513.51 702.552 1528.74 702.769 1537.32 702.698 C 1607.55 702.113 1698.74 718.998 1759 756.19 C 1760.26 795.555 1756.47 834.919 1747.71 873.317 C 1714.37 1021.51 1633.15 1127.71 1505.53 1208.28 C 1487.74 1220.1 1468.93 1230.31 1449.33 1238.8 C 1450.1 1225.59 1456.4 1198.12 1458.39 1183.36 C 1464.09 1141.01 1464.84 1098.14 1460.62 1055.61 C 1449.49 934.088 1382.63 830.051 1290.18 753.19 C 1361.62 726.689 1428.87 709.072 1505.53 703.413 z" />
</svg>